<svg width="512" height="512" viewBox="0 0 512 512" style="color:currentColor" xmlns="http://www.w3.org/2000/svg" class="h-full w-full"><rect width="512" height="512" x="0" y="0" rx="30" fill="transparent" stroke="transparent" stroke-width="0" stroke-opacity="100%" paint-order="stroke"></rect><svg width="256px" height="256px" viewBox="0 0 16 16" fill="currentColor" x="128" y="128" role="img" style="display:inline-block;vertical-align:middle" xmlns="http://www.w3.org/2000/svg"><g fill="currentColor"><path fill="currentColor" d="M4 5.5a.5.5 0 0 1 .5-.5h3a.5.5 0 0 1 .489.605A5.498 5.498 0 0 0 7.337 6H4.5a.5.5 0 0 1-.5-.5ZM6.257 7H4.5a.5.5 0 0 0 0 1h1.1c.183-.358.404-.693.657-1Zm-1.05 2H4.5a.5.5 0 0 0 0 1h.522a5.48 5.48 0 0 1 .185-1Zm0 3H3a1 1 0 0 1-1-1V5a1 1 0 0 1 1-1h10a1 1 0 0 1 1 1v1.257c.38.314.716.677 1 1.08V5a2 2 0 0 0-2-2H3a2 2 0 0 0-2 2v6a2 2 0 0 0 2 2h2.6a5.465 5.465 0 0 1-.393-1Zm5.293 2a3.5 3.5 0 1 1 0-7a3.5 3.5 0 0 1 0 7Zm0 1a4.5 4.5 0 1 0 0-9a4.5 4.5 0 0 0 0 9Zm0-2a2.5 2.5 0 1 1 0-5a2.5 2.5 0 0 1 0 5Z"/></g></svg></svg>